<?xml version="1.0" encoding="UTF-8" standalone="no"?>
<svg
   xmlns:dc="http://purl.org/dc/elements/1.1/"
   xmlns:cc="http://creativecommons.org/ns#"
   xmlns:rdf="http://www.w3.org/1999/02/22-rdf-syntax-ns#"
   xmlns:svg="http://www.w3.org/2000/svg"
   xmlns="http://www.w3.org/2000/svg"
   xmlns:sodipodi="http://sodipodi.sourceforge.net/DTD/sodipodi-0.dtd"
   xmlns:inkscape="http://www.inkscape.org/namespaces/inkscape"
   width="40.000019"
   height="4.7998314"
   viewBox="0 0 10.583338 1.2699553"
   version="1.1"
   id="svg8"
   inkscape:version="1.0 (4035a4f, 2020-05-01)"
   sodipodi:docname="logo_wht_beta1.svg">
  <defs
     id="defs2">
    <rect
       x="295.77701"
       y="15.456862"
       width="312.20834"
       height="12.095238"
       id="rect21" />
    <rect
       id="rect30"
       height="73.327377"
       width="209.3988"
       y="0"
       x="-0.75595236" />
  </defs>
  <sodipodi:namedview
     inkscape:snap-text-baseline="false"
     units="px"
     inkscape:window-maximized="0"
     inkscape:window-y="0"
     inkscape:window-x="0"
     inkscape:window-height="900"
     inkscape:window-width="1440"
     showgrid="true"
     inkscape:document-rotation="0"
     inkscape:current-layer="text36"
     inkscape:document-units="px"
     inkscape:cy="-3.492469"
     inkscape:cx="12.82266"
     inkscape:zoom="6.5639512"
     inkscape:pageshadow="2"
     inkscape:pageopacity="0"
     borderopacity="1.0"
     bordercolor="#666666"
     pagecolor="#ffffff"
     id="base"
     inkscape:pagecheckerboard="true">
    <inkscape:grid
       originy="-1.2714143"
       originx="-0.70874161"
       id="grid1022"
       type="xygrid" />
  </sodipodi:namedview>
  <metadata
     id="metadata5">
    <rdf:RDF>
      <cc:Work
         rdf:about="">
        <dc:format>image/svg+xml</dc:format>
        <dc:type
           rdf:resource="http://purl.org/dc/dcmitype/StillImage" />
        <dc:title></dc:title>
      </cc:Work>
    </rdf:RDF>
  </metadata>
  <g
     transform="translate(-12.247646,-2.3651816)"
     id="layer1"
     inkscape:groupmode="layer"
     inkscape:label="Layer 1">
    <text
       style="font-style:normal;font-variant:normal;font-weight:normal;font-stretch:normal;font-size:10.58329999999999949px;line-height:1.25;font-family:Gruppo;-inkscape-font-specification:'Gruppo, Normal';font-variant-ligatures:normal;font-variant-caps:normal;font-variant-numeric:normal;font-variant-east-asian:normal;white-space:pre;shape-inside:url(#rect30);fill:#000000;fill-opacity:1;stroke:none;"
       id="text28"
       xml:space="preserve" />
    <g
       style="font-style:normal;font-variant:normal;font-weight:normal;font-stretch:normal;font-size:2.31394px;line-height:1.25;font-family:Gruppo;-inkscape-font-specification:'Gruppo, Normal';font-variant-ligatures:normal;font-variant-caps:normal;font-variant-numeric:normal;font-variant-east-asian:normal;letter-spacing:0px;fill:#000000;fill-opacity:1;stroke:none;stroke-width:0.0723103;stroke-miterlimit:4;stroke-dasharray:none"
       id="text36"
       aria-label="tillallhours">
      <path
         id="path237"
         style="font-style:normal;font-variant:normal;font-weight:normal;font-stretch:normal;font-size:2.31394px;font-family:Gruppo;-inkscape-font-specification:'Gruppo, Normal';font-variant-ligatures:normal;font-variant-caps:normal;font-variant-numeric:normal;font-variant-east-asian:normal;fill:#ffffff;stroke-width:0.0723103;stroke-miterlimit:4;stroke-dasharray:none"
         d="m 12.52672,2.7753184 h 0.317489 q 0.04068,0 0.06666,0.024857 0.0113,0.011299 0.01808,0.027116 0.0068,0.015818 0.0068,0.032766 0,0.016948 -0.0068,0.032766 -0.0068,0.015818 -0.02034,0.028246 -0.01243,0.012428 -0.02938,0.018078 -0.01695,0.00565 -0.03503,0.00565 H 12.52672 v 0.3434755 q 0,0.059882 0.01356,0.092648 0.01356,0.031636 0.03164,0.046324 0.01808,0.014688 0.04181,0.019207 0.03164,0.00678 0.07231,0.00678 0.04068,0 0.08248,-0.015818 0.04858,-0.018078 0.114115,-0.051973 0.02599,-0.013558 0.05197,-0.013558 0.02373,0 0.04406,0.010169 0.02712,0.014688 0.03841,0.044064 0.0068,0.015818 0.0068,0.031636 0,0.033896 -0.02034,0.058752 -0.01356,0.016948 -0.03502,0.029376 -0.04971,0.027116 -0.07909,0.039545 -0.04971,0.021467 -0.08474,0.031636 -0.06101,0.018078 -0.134453,0.018078 -0.158179,0 -0.248567,-0.0757 -0.04858,-0.040675 -0.0757,-0.1050764 -0.02486,-0.061012 -0.02486,-0.1480108 V 2.9447964 h -0.04181 q -0.01808,0 -0.03503,-0.00565 -0.01695,-0.00678 -0.02938,-0.019207 -0.02486,-0.027116 -0.02486,-0.059882 0,-0.032766 0.02373,-0.058752 0.02486,-0.025987 0.06553,-0.025987 h 0.04181 v -0.223711 q 0,-0.053103 0.02599,-0.081349 0.0068,-0.00791 0.01469,-0.012428 0.02938,-0.019208 0.0644,-0.019208 0.03615,0 0.0644,0.020337 0.03615,0.027116 0.03615,0.092648 z" />
      <path
         id="path239"
         style="font-style:normal;font-variant:normal;font-weight:normal;font-stretch:normal;font-size:2.31394px;font-family:Gruppo;-inkscape-font-specification:'Gruppo, Normal';font-variant-ligatures:normal;font-variant-caps:normal;font-variant-numeric:normal;font-variant-east-asian:normal;fill:#ffffff;stroke-width:0.0723103;stroke-miterlimit:4;stroke-dasharray:none"
         d="m 13.321007,2.8679664 v 0.6361075 q 0,0.040675 -0.0113,0.063272 -0.01017,0.027116 -0.0339,0.041805 -0.02373,0.014688 -0.05762,0.014688 -0.04406,0 -0.07118,-0.024857 -0.01469,-0.011299 -0.02147,-0.028246 -0.01017,-0.024857 -0.01017,-0.062142 v -0.632718 q 0,-0.033896 0.0113,-0.059882 0.0079,-0.019207 0.02034,-0.030506 0.01356,-0.012428 0.03051,-0.019208 0.01695,-0.00791 0.04293,-0.00791 0.02599,0 0.04406,0.00904 0.0339,0.013558 0.04519,0.042934 0.0113,0.025987 0.0113,0.057622 z M 13.217061,2.6758913 q -0.04745,0 -0.08248,-0.031636 -0.0339,-0.032766 -0.0339,-0.083609 0,-0.031636 0.01469,-0.058752 0.01921,-0.035025 0.05762,-0.050843 0.02147,-0.00904 0.04519,-0.00904 0.04971,0 0.08474,0.033896 0.03503,0.033896 0.03503,0.084739 0,0.037285 -0.02034,0.065532 -0.0068,0.011299 -0.01695,0.019208 -0.03503,0.030506 -0.08361,0.030506 z" />
      <path
         id="path241"
         style="font-style:normal;font-variant:normal;font-weight:normal;font-stretch:normal;font-size:2.31394px;font-family:Gruppo;-inkscape-font-specification:'Gruppo, Normal';font-variant-ligatures:normal;font-variant-caps:normal;font-variant-numeric:normal;font-variant-east-asian:normal;fill:#ffffff;stroke-width:0.0723103;stroke-miterlimit:4;stroke-dasharray:none"
         d="m 13.791026,2.5018939 v 0.9965308 q 0,0.038415 -0.0113,0.067791 -0.0113,0.031636 -0.04181,0.046324 -0.02147,0.011299 -0.04858,0.011299 -0.03503,0 -0.05875,-0.015818 -0.03955,-0.024857 -0.04406,-0.07683 -0.0011,-0.013558 -0.0011,-0.030506 V 2.5041536 q 0,-0.039545 0.0034,-0.055363 0.0045,-0.015818 0.009,-0.025987 0.01243,-0.024857 0.0339,-0.040675 0.02486,-0.016948 0.05988,-0.016948 0.0339,0 0.05762,0.019207 0.03616,0.028246 0.04067,0.083609 0.0011,0.016948 0.0011,0.033896 z" />
      <path
         id="path243"
         style="font-style:normal;font-variant:normal;font-weight:normal;font-stretch:normal;font-size:2.31394px;font-family:Gruppo;-inkscape-font-specification:'Gruppo, Normal';font-variant-ligatures:normal;font-variant-caps:normal;font-variant-numeric:normal;font-variant-east-asian:normal;fill:#ffffff;stroke-width:0.0723103;stroke-miterlimit:4;stroke-dasharray:none"
         d="m 14.242968,2.5018939 v 0.9965308 q 0,0.038415 -0.0113,0.067791 -0.0113,0.031636 -0.0418,0.046324 -0.02147,0.011299 -0.04858,0.011299 -0.03503,0 -0.05875,-0.015818 -0.03954,-0.024857 -0.04406,-0.07683 -0.0011,-0.013558 -0.0011,-0.030506 V 2.5041536 q 0,-0.039545 0.0034,-0.055363 0.0045,-0.015818 0.009,-0.025987 0.01243,-0.024857 0.03389,-0.040675 0.02486,-0.016948 0.05988,-0.016948 0.03389,0 0.05762,0.019207 0.03616,0.028246 0.04068,0.083609 0.0011,0.016948 0.0011,0.033896 z" />
      <path
         id="path245"
         style="font-style:normal;font-variant:normal;font-weight:normal;font-stretch:normal;font-size:2.31394px;font-family:Gruppo;-inkscape-font-specification:'Gruppo, Normal';font-variant-ligatures:normal;font-variant-caps:normal;font-variant-numeric:normal;font-variant-east-asian:normal;fill:#ffffff;stroke-width:0.0723103;stroke-miterlimit:4;stroke-dasharray:none"
         d="m 14.682481,3.2769734 q -0.0079,0.011298 -0.01243,0.027116 -0.0045,0.014688 -0.0045,0.029376 0,0.014688 0.0011,0.021467 0.0011,0.00678 0.0034,0.012428 0.01243,0.032766 0.06779,0.054233 0.08248,0.031636 0.242918,0.031636 0.09378,0 0.166089,-0.010169 0.07118,-0.011299 0.123154,-0.027116 0.0531,-0.015818 0.087,-0.033896 0.0226,-0.011299 0.03954,-0.021467 V 3.2385584 q -0.08926,-0.00904 -0.195464,-0.019208 -0.105077,-0.010169 -0.224841,-0.010169 -0.170608,0 -0.244049,0.031636 -0.03276,0.013558 -0.04971,0.036155 z m 0.688081,-0.2677753 q -0.02486,-0.037285 -0.06327,-0.056493 -0.04068,-0.020337 -0.09717,-0.027116 -0.05649,-0.00791 -0.123154,-0.00791 -0.105076,0 -0.161569,0.00452 -0.09265,0.00678 -0.144621,0.014688 -0.08361,0.013558 -0.148011,0.037285 l -0.009,0.00339 h -0.01017 q -0.02147,0 -0.03955,-0.00904 -0.01695,-0.010169 -0.02938,-0.024857 -0.02486,-0.082479 -0.02486,-0.1819064 0,0.020337 0.02486,0.032766 0.01017,0.00565 0.02147,0.00904 0.01243,-0.00678 0.03051,-0.011299 0.01921,-0.00565 0.02034,-0.00678 0.03616,-0.011299 0.09943,-0.022597 0.15479,-0.027116 0.372852,-0.027116 0.142362,0 0.241789,0.037285 0.05762,0.020337 0.109595,0.055363 0.102817,0.070051 0.143492,0.2180618 0.01921,0.072311 0.01921,0.169478 v 0.2858529 q 0,0.013558 -0.0023,0.030506 -0.0011,0.016948 -0.01017,0.035025 -0.0113,0.022597 -0.03051,0.036155 -0.02486,0.020337 -0.06101,0.020337 -0.02712,0 -0.04858,-0.012428 -0.01356,-0.00791 -0.02373,-0.020337 -0.01921,-0.022597 -0.02599,-0.059882 -0.087,0.058752 -0.216932,0.085869 -0.08361,0.018078 -0.189816,0.018078 -0.364942,0 -0.486967,-0.1525303 -0.04745,-0.059882 -0.04745,-0.1412317 0,-0.090388 0.04293,-0.1525302 0.04293,-0.063272 0.114115,-0.098297 0.07231,-0.036155 0.161569,-0.049714 0.08926,-0.013558 0.188686,-0.013558 0.15027,0 0.288113,0.020337 0.0757,0.011299 0.135582,0.028246 -0.0068,-0.039545 -0.02034,-0.066661 z" />
      <path
         id="path247"
         style="font-style:normal;font-variant:normal;font-weight:normal;font-stretch:normal;font-size:2.31394px;font-family:Gruppo;-inkscape-font-specification:'Gruppo, Normal';font-variant-ligatures:normal;font-variant-caps:normal;font-variant-numeric:normal;font-variant-east-asian:normal;fill:#ffffff;stroke-width:0.0723103;stroke-miterlimit:4;stroke-dasharray:none"
         d="m 16.041694,2.5018939 v 0.9965308 q 0,0.038415 -0.0113,0.067791 -0.0113,0.031636 -0.04181,0.046324 -0.02147,0.011299 -0.04858,0.011299 -0.03503,0 -0.05875,-0.015818 -0.03954,-0.024857 -0.04406,-0.07683 -0.0011,-0.013558 -0.0011,-0.030506 V 2.5041536 q 0,-0.039545 0.0034,-0.055363 0.0045,-0.015818 0.009,-0.025987 0.01243,-0.024857 0.03389,-0.040675 0.02486,-0.016948 0.05988,-0.016948 0.0339,0 0.05762,0.019207 0.03616,0.028246 0.04068,0.083609 0.0011,0.016948 0.0011,0.033896 z" />
      <path
         id="path249"
         style="font-style:normal;font-variant:normal;font-weight:normal;font-stretch:normal;font-size:2.31394px;font-family:Gruppo;-inkscape-font-specification:'Gruppo, Normal';font-variant-ligatures:normal;font-variant-caps:normal;font-variant-numeric:normal;font-variant-east-asian:normal;fill:#ffffff;stroke-width:0.0723103;stroke-miterlimit:4;stroke-dasharray:none"
         d="m 16.493636,2.5018939 v 0.9965308 q 0,0.038415 -0.0113,0.067791 -0.0113,0.031636 -0.0418,0.046324 -0.02147,0.011299 -0.04858,0.011299 -0.03503,0 -0.05875,-0.015818 -0.03954,-0.024857 -0.04406,-0.07683 -0.0011,-0.013558 -0.0011,-0.030506 V 2.5041536 q 0,-0.039545 0.0034,-0.055363 0.0045,-0.015818 0.009,-0.025987 0.01243,-0.024857 0.0339,-0.040675 0.02486,-0.016948 0.05988,-0.016948 0.0339,0 0.05762,0.019207 0.03616,0.028246 0.04068,0.083609 0.0011,0.016948 0.0011,0.033896 z" />
      <path
         id="path251"
         style="font-style:normal;font-variant:normal;font-weight:normal;font-stretch:normal;font-size:2.31394px;font-family:Gruppo;-inkscape-font-specification:'Gruppo, Normal';font-variant-ligatures:normal;font-variant-caps:normal;font-variant-numeric:normal;font-variant-east-asian:normal;fill:#ffffff;stroke-width:0.0723103;stroke-miterlimit:4;stroke-dasharray:none"
         d="m 17.861888,3.1560791 v 0.3446053 q 0,0.041805 -0.0113,0.065532 -0.02034,0.046324 -0.06892,0.055363 -0.01017,0.00226 -0.01921,0.00226 -0.009,0 -0.01695,-0.00113 -0.0068,-0.00113 -0.01469,-0.00226 -0.01695,-0.00452 -0.03163,-0.016948 -0.03729,-0.025987 -0.04181,-0.072311 -0.0011,-0.014688 -0.0011,-0.029376 V 3.1673776 q 0,-0.070051 -0.01243,-0.1220242 -0.01017,-0.042934 -0.03842,-0.070051 -0.03729,-0.037285 -0.122025,-0.049714 -0.04971,-0.00791 -0.116374,-0.00791 -0.06101,0 -0.133323,0.00904 -0.06892,0.00791 -0.129933,0.028246 -0.06101,0.020337 -0.106207,0.053103 -0.03729,0.025987 -0.0531,0.064402 v 0.4293443 q 0,0.039545 -0.0113,0.063272 -0.01017,0.023727 -0.02938,0.037285 -0.02486,0.021467 -0.05988,0.021467 -0.03502,0 -0.05875,-0.018078 -0.0226,-0.015818 -0.03277,-0.036155 -0.01017,-0.020337 -0.01243,-0.038415 -0.0011,-0.019207 -0.0011,-0.035025 V 2.5018939 q 0,-0.035025 0.0034,-0.050843 0.0045,-0.015818 0.009,-0.025987 0.0113,-0.024857 0.0339,-0.041805 0.02373,-0.018078 0.05875,-0.018078 0.0339,0 0.05762,0.019207 0.0339,0.027116 0.04068,0.081349 0.0023,0.018078 0.0023,0.036155 v 0.3378262 q 0.05423,-0.038415 0.126544,-0.061012 0.100557,-0.031636 0.206763,-0.039545 0.04858,-0.00339 0.08926,-0.00339 0.128803,0 0.219191,0.022597 0.197725,0.042934 0.250828,0.2101528 0.02486,0.07683 0.02486,0.1875557 z" />
      <path
         id="path253"
         style="font-style:normal;font-variant:normal;font-weight:normal;font-stretch:normal;font-size:2.31394px;font-family:Gruppo;-inkscape-font-specification:'Gruppo, Normal';font-variant-ligatures:normal;font-variant-caps:normal;font-variant-numeric:normal;font-variant-east-asian:normal;fill:#ffffff;stroke-width:0.0723103;stroke-miterlimit:4;stroke-dasharray:none"
         d="m 18.952197,3.6012414 q -0.05875,0.016948 -0.128803,0.024857 -0.06892,0.00904 -0.136712,0.00904 -0.06779,0 -0.116375,-0.00339 -0.168348,-0.011299 -0.284723,-0.063272 -0.04858,-0.022597 -0.087,-0.051973 -0.07796,-0.059882 -0.111856,-0.1423615 -0.03276,-0.083609 -0.03276,-0.1841661 0,-0.1152451 0.03729,-0.201114 0.03841,-0.086999 0.118635,-0.1434914 0.08135,-0.056493 0.196594,-0.081349 0.115245,-0.028246 0.266645,-0.028246 0.23162,0 0.371722,0.064402 0.151401,0.062142 0.210153,0.1932049 0.03729,0.082479 0.03729,0.1965946 0,0.1005569 -0.0339,0.1830362 -0.03277,0.081349 -0.109596,0.1401019 -0.07683,0.058752 -0.196595,0.088129 z M 18.396309,3.4125558 q 0.04406,0.018078 0.111856,0.029376 0.06779,0.011299 0.164958,0.011299 0.178517,0 0.277944,-0.041805 0.04293,-0.018078 0.06779,-0.041805 0.05084,-0.047454 0.06214,-0.1118555 0.0056,-0.035025 0.0056,-0.070051 0,-0.138972 -0.07796,-0.1988543 -0.04971,-0.038415 -0.134453,-0.054233 -0.08474,-0.016948 -0.201114,-0.016948 -0.22936,0 -0.323138,0.062142 -0.04519,0.029376 -0.06666,0.07796 -0.02373,0.051973 -0.02373,0.1299332 0,0.035025 0.0056,0.067791 0.0113,0.066661 0.06214,0.1141152 0.02486,0.023727 0.06892,0.042934 z" />
      <path
         id="path255"
         style="font-style:normal;font-variant:normal;font-weight:normal;font-stretch:normal;font-size:2.31394px;font-family:Gruppo;-inkscape-font-specification:'Gruppo, Normal';font-variant-ligatures:normal;font-variant-caps:normal;font-variant-numeric:normal;font-variant-east-asian:normal;fill:#ffffff;stroke-width:0.0723103;stroke-miterlimit:4;stroke-dasharray:none"
         d="m 20.376942,3.3538034 v -0.470019 q 0,-0.014688 0.0011,-0.030506 0.0023,-0.016948 0.0068,-0.028246 0.0045,-0.011299 0.009,-0.018078 0.0079,-0.015818 0.02147,-0.027116 0.02486,-0.021467 0.06101,-0.021467 0.05084,0 0.08022,0.037285 0.02147,0.024857 0.02486,0.059882 0.0011,0.014688 0.0011,0.029376 v 0.6169 q 0,0.072311 -0.04293,0.1028167 -0.02373,0.019207 -0.05762,0.019207 -0.04406,0 -0.07231,-0.024857 -0.02373,-0.022597 -0.03051,-0.066661 -0.08587,0.056493 -0.210153,0.084739 -0.07796,0.018078 -0.179646,0.018078 -0.128804,0 -0.223711,-0.025987 -0.09604,-0.022597 -0.161569,-0.07457 -0.0644,-0.051973 -0.09378,-0.1288033 -0.02825,-0.07683 -0.02825,-0.1796467 V 2.8826545 q 0,-0.040675 0.0113,-0.064402 0.0113,-0.024857 0.03164,-0.039545 0.02486,-0.020337 0.05988,-0.020337 0.04745,0 0.0757,0.032766 0.0113,0.012428 0.01582,0.023727 0.0079,0.019208 0.009,0.036155 0.0023,0.015818 0.0023,0.030506 v 0.3333068 q 0,0.07457 0.01469,0.1231541 0.0113,0.041805 0.03955,0.066661 0.02938,0.023727 0.087,0.036155 0.05875,0.012428 0.16044,0.012428 0.131063,0 0.248567,-0.037285 0.07118,-0.023727 0.138972,-0.062142 z" />
      <path
         id="path257"
         style="font-style:normal;font-variant:normal;font-weight:normal;font-stretch:normal;font-size:2.31394px;font-family:Gruppo;-inkscape-font-specification:'Gruppo, Normal';font-variant-ligatures:normal;font-variant-caps:normal;font-variant-numeric:normal;font-variant-east-asian:normal;fill:#ffffff;stroke-width:0.0723103;stroke-miterlimit:4;stroke-dasharray:none"
         d="m 21.027738,2.8306812 q 0.04068,-0.031636 0.08813,-0.050843 0.06101,-0.027116 0.124283,-0.035025 0.06327,-0.00904 0.110726,-0.00904 0.108466,0 0.183036,0.020337 0.03729,0.00904 0.04406,0.012428 0.0068,0.00339 0.01243,0.00678 0.0056,0.00339 0.0113,0.00791 0.02034,0.016948 0.02825,0.045194 0.0034,0.012428 0.0034,0.025987 0,0.033896 -0.02147,0.062142 -0.02712,0.035026 -0.07457,0.035026 h -0.01017 l -0.01921,-0.00452 q -0.04068,-0.011299 -0.07683,-0.016948 -0.03616,-0.00678 -0.08813,-0.00678 -0.05197,0 -0.106206,0.010169 -0.105076,0.019208 -0.163829,0.0757 -0.02486,0.025987 -0.03955,0.058752 v 0.4372533 q 0,0.032766 -0.0113,0.062142 -0.01017,0.029376 -0.04068,0.044064 -0.02147,0.012428 -0.0531,0.012428 -0.03051,0 -0.05423,-0.016948 -0.04068,-0.024857 -0.04519,-0.0757 -0.0011,-0.013558 -0.0011,-0.029376 V 2.8702261 q 0,-0.033896 0.01469,-0.061012 0.02486,-0.050843 0.09378,-0.050843 0.02373,0 0.04293,0.00904 0.03728,0.016948 0.04858,0.063272 z" />
      <path
         id="path259"
         style="font-style:normal;font-variant:normal;font-weight:normal;font-stretch:normal;font-size:2.31394px;font-family:Gruppo;-inkscape-font-specification:'Gruppo, Normal';font-variant-ligatures:normal;font-variant-caps:normal;font-variant-numeric:normal;font-variant-east-asian:normal;fill:#ffffff;stroke-width:0.0723103;stroke-miterlimit:4;stroke-dasharray:none"
         d="m 22.664896,3.387699 q 0.01808,-0.014688 0.01808,-0.037285 0,-0.022597 -0.01017,-0.033896 -0.0034,-0.00452 -0.01017,-0.00791 -0.03164,-0.021467 -0.08813,-0.031636 -0.06553,-0.012428 -0.151401,-0.015818 -0.08587,-0.00339 -0.14801,-0.00452 -0.06101,-0.00226 -0.09152,-0.00339 -0.06214,-0.00226 -0.122024,-0.00678 -0.09491,-0.00678 -0.175127,-0.029376 -0.07909,-0.022597 -0.131063,-0.067791 -0.05875,-0.050843 -0.05875,-0.1355824 0,-0.084739 0.05649,-0.1401018 0.05084,-0.051973 0.129933,-0.08022 0.07796,-0.033896 0.170608,-0.045194 0.09378,-0.012428 0.178517,-0.012428 0.253087,0 0.427085,0.059882 0.06327,0.021467 0.120894,0.053103 0.02938,0.014688 0.04181,0.040675 0.0079,0.016948 0.01017,0.038415 v 0.00339 q 0,0.035025 -0.02147,0.062142 -0.0113,0.013558 -0.02825,0.023727 -0.01695,0.00904 -0.03729,0.00904 -0.0226,0 -0.03842,-0.010169 -0.08926,-0.044064 -0.203374,-0.071181 Q 22.390342,2.91768 22.24572,2.91768 q -0.07344,0 -0.141231,0.00791 -0.133323,0.014688 -0.184166,0.061012 -0.01808,0.018078 -0.01808,0.045194 0,0.011299 0.0034,0.020337 0.0045,0.00791 0.01469,0.014688 0.03277,0.019208 0.09039,0.029376 0.0644,0.011299 0.148011,0.013558 l 0.180776,0.00565 q 0.09378,0.00339 0.184166,0.010169 0.09604,0.00791 0.171738,0.030506 0.08361,0.024857 0.135582,0.07344 0.05762,0.051973 0.05762,0.1367123 -0.0011,0.07796 -0.05762,0.1321929 -0.05197,0.048584 -0.132192,0.07683 -0.08135,0.032766 -0.180777,0.046324 -0.09717,0.013558 -0.201114,0.013558 -0.06214,0 -0.134452,-0.00339 -0.167219,-0.00565 -0.292633,-0.048584 -0.07457,-0.025987 -0.129933,-0.070051 -0.02712,-0.020337 -0.03502,-0.049714 -0.0034,-0.012428 -0.0034,-0.024857 0,-0.040675 0.02825,-0.068921 0.02373,-0.024857 0.05875,-0.024857 0.02825,0 0.04858,0.016948 0.111855,0.0757 0.314099,0.088129 0.06553,0.00339 0.119764,0.00339 0.09604,0 0.169479,-0.00678 0.07457,-0.00678 0.125413,-0.021467 0.05197,-0.015818 0.07909,-0.037285 z" />
    </g>
    <text
       xml:space="preserve"
       id="text19"
       style="font-style:normal;font-weight:normal;font-size:10.58329999999999949px;line-height:1.25;font-family:sans-serif;white-space:pre;shape-inside:url(#rect21);fill:#000000;fill-opacity:1;stroke:none;" />
  </g>
</svg>
